# xmcd
#
# Track frame offsets: 
#        150
#        16271
#        35560
#        47048
#        61546
#        79555
#        91211
#        105194
#        121795
#        132497
#
# Disc length: 1933 seconds
#
# Revision: 0
# Processed by: cddbd v1.5.2PL0 Copyright (c) Steve Scherf et al.
# Submitted via: ExactAudioCopy v0.90b3
#
DISCID=6b078b0a
DTITLE=Amy Winehouse - Back to Black
DYEAR=2006
DGENRE=Blues
TTITLE0=Rehab
TTITLE1=You know I'm no good
TTITLE2=Me and Mr Jones
TTITLE3=Just friends
TTITLE4=Back to black
TTITLE5=Love is a losing game
TTITLE6=Tears dry on their own
TTITLE7=Wake up alone
TTITLE8=Some unholy war
TTITLE9=He can only hold her
EXTD=
EXTT0=Amy Winehouse
EXTT1=
EXTT2=
EXTT3=
EXTT4=
EXTT5=
EXTT6=
EXTT7=
EXTT8=
EXTT9=
PLAYORDER=
